# xmcd CD database file
#
# Track frame offsets:
#	150
#	64849
#	107584
#	127650
#	143991
#	165704
#	213868
#	237635
#	270471
#
# Disc length: 4192 seconds
#
# Revision: 0
# Processed by: cddbd v1.5.2PL0 Copyright (c) Steve Scherf et al.
# Submitted via: CDex 1.51
#
DISCID=7c105e09
DTITLE=Albert Mangelsdorff Quintett - Recorded Live at Audimax Freiburg June 22, 1964
DYEAR=1964
DGENRE=Jazz
TTITLE0=Now Jazz Ramwong
TTITLE1=Set 'em Up
TTITLE2=Raknahs
TTITLE3=Sakura Waltz
TTITLE4=Burungkaka
TTITLE5=Theme from Pather Panchali
TTITLE6=Far Out Far East
TTITLE7=Okaka
TTITLE8=Es sungen drei Engel
EXTD=YEAR: 1964
EXTT0=
EXTT1=
EXTT2=
EXTT3=
EXTT4=
EXTT5=
EXTT6=
EXTT7=
EXTT8=
PLAYORDER=
